<?xml version="1.0" encoding="UTF-8"?>
<svg xmlns="http://www.w3.org/2000/svg" height="16px" viewBox="0 -960 960 960" width="16px">
    <path d="M482.5-200.087 596.413-313 482.739-426.413 440.087-384l42.826 42.326q-29.304.283-55.859-9.728-26.554-10.011-46.097-29.555-19.761-19.76-30.142-45.521-10.38-25.761-10.38-52.522 0-16.761 4.25-33.75t12.489-33.728l-43.913-43.674q-16.978 25.456-25.087 53.435-8.109 27.978-8.109 56.717 0 38.978 14.75 75.598 14.75 36.619 44.228 65.359 27.522 28.26 63.924 43.01 36.403 14.75 75.424 15.49L440.087-242l42.413 41.913Zm164.978-169.761q16.239-25.456 24.598-53.435 8.359-27.978 8.359-56.717 0-38.978-14.87-75.978-14.869-37-43.608-65.979-28.261-28.021-64.794-42.391-36.533-14.369-75.315-14.848L519.913-718 478-760.413 364.087-647l113.674 112.913L519.913-576l-43.087-43.326q28.304.717 55.62 10.859 27.315 10.141 46.597 29.424 19.761 19.76 30.392 45.521 10.63 25.761 10.63 52.522 0 16.761-4.5 33.75t-12.739 32.989l44.652 44.413ZM480-79.022q-82.435 0-155.511-31.608-73.076-31.609-127.663-86.196-54.587-54.587-86.196-127.663Q79.022-397.565 79.022-480q0-83.435 31.608-156.511 31.609-73.076 86.196-127.413 54.587-54.337 127.663-85.815Q397.565-881.218 480-881.218q83.435 0 156.511 31.479 73.076 31.478 127.413 85.815 54.337 54.337 85.815 127.413Q881.218-563.435 881.218-480q0 82.435-31.479 155.511-31.478 73.076-85.815 127.663-54.337 54.587-127.413 86.196Q563.435-79.022 480-79.022Zm0-65.63q139.543 0 237.446-98.283Q815.348-341.217 815.348-480q0-139.543-97.902-237.446Q619.543-815.348 480-815.348q-138.783 0-237.065 97.902Q144.652-619.543 144.652-480q0 138.783 98.283 237.065Q341.217-144.652 480-144.652ZM480-480Z"/>
</svg>